# 3ds Max Wavefront OBJ Exporter v0.99 - (c)2007 guruware
# File Created: 08.01.2025 13:55:29

mtllib LaptopBase.mtl

#
# object LaptopBase
#

v  -6.8877 0.0000 6.7128
v  -6.8877 0.0000 -8.2872
v  2.1123 0.0000 -8.2872
v  2.1123 0.0000 6.7128
v  -6.8877 0.4000 6.7128
v  2.1123 0.4000 6.7128
v  2.1123 0.4000 -8.2872
v  -6.8877 0.4000 -8.2872
# 8 vertices

vn -0.5774 -0.5774 0.5774
vn -0.5774 -0.5774 -0.5774
vn 0.5774 -0.5774 -0.5774
vn 0.5774 -0.5774 0.5774
vn -0.5774 0.5774 0.5774
vn 0.5774 0.5774 0.5774
vn 0.5774 0.5774 -0.5774
vn -0.5774 0.5774 -0.5774
# 8 vertex normals

vt 1.0000 0.0000 0.0000
vt 1.0000 1.0000 0.0000
vt 0.0000 1.0000 0.0000
vt 0.0000 0.0000 0.0000
# 4 texture coords

o LaptopBase
g LaptopBase
usemtl wire_191148096
s 2
f 1/1/1 2/2/2 3/3/3 4/4/4 
s 4
f 5/4/5 6/1/6 7/2/7 8/3/8 
s 8
f 1/4/1 4/1/4 6/2/6 5/3/5 
s 16
f 4/4/4 3/1/3 7/2/7 6/3/6 
s 32
f 3/4/3 2/1/2 8/2/8 7/3/7 
s 64
f 2/4/2 1/1/1 5/2/5 8/3/8 
# 6 polygons

#
# object LaptopTop
#

v  1.6269 0.1302 6.6448
v  1.6269 0.1302 -8.3552
v  5.4241 8.2899 -8.3552
v  5.4241 8.2899 6.6448
v  1.2642 0.2990 6.6448
v  5.0614 8.4587 6.6448
v  5.0614 8.4587 -8.3552
v  1.2642 0.2990 -8.3552
# 8 vertices

vn 0.2799 -0.7670 0.5774
vn 0.2799 -0.7670 -0.5774
vn 0.7670 0.2799 -0.5774
vn 0.7670 0.2799 0.5774
vn -0.7670 -0.2799 0.5774
vn -0.2799 0.7670 0.5774
vn -0.2799 0.7670 -0.5774
vn -0.7670 -0.2799 -0.5774
# 8 vertex normals

vt 0.0000 0.2224 0.0000
vt 1.0000 0.2224 0.0000
vt 1.0000 0.7664 0.0000
vt 0.0000 0.7664 0.0000
vt 0.0000 0.2336 0.0000
vt 0.0000 0.7776 0.0000
vt 1.0000 0.7776 0.0000
vt 1.0000 0.2336 0.0000
# 8 texture coords

o LaptopTop
g LaptopTop
usemtl wire_092017054
s 2
f 9/5/9 10/6/10 11/7/11 12/8/12 
s 4
f 13/9/13 14/10/14 15/11/15 16/12/16 
s 8
f 9/5/9 12/8/12 14/10/14 13/9/13 
s 16
f 12/8/12 11/7/11 15/11/15 14/10/14 
s 32
f 11/7/11 10/6/10 16/12/16 15/11/15 
s 64
f 10/6/10 9/5/9 13/9/13 16/12/16 
# 6 polygons

