# 3ds Max Wavefront OBJ Exporter v0.99 - (c)2007 guruware
# File Created: 08.01.2025 13:55:56

mtllib LaptopScreen.mtl

#
# object LaptopScreen
#

v  1.7245 0.7763 6.1563
v  1.7245 0.7763 -7.8437
v  5.0533 8.0509 -7.8437
v  5.0533 8.0509 6.1563
v  1.4517 0.9011 6.1563
v  4.7805 8.1757 6.1563
v  4.7805 8.1757 -7.8437
v  1.4517 0.9011 -7.8437
# 8 vertices

vn 0.2848 -0.7652 0.5774
vn 0.2848 -0.7652 -0.5774
vn 0.7652 0.2848 -0.5774
vn 0.7652 0.2848 0.5774
vn -0.7652 -0.2848 0.5774
vn -0.2848 0.7652 0.5774
vn -0.2848 0.7652 -0.5774
vn -0.7652 -0.2848 -0.5774
# 8 vertex normals

vt 0.0000 0.2357 0.0000
vt 1.0000 0.2357 0.0000
vt 1.0000 0.7553 0.0000
vt 0.0000 0.7553 0.0000
vt 0.0000 0.2447 0.0000
vt 0.0000 0.7643 0.0000
vt 1.0000 0.7643 0.0000
vt 1.0000 0.2447 0.0000
# 8 texture coords

o LaptopScreen
g LaptopScreen
usemtl wire_160148043
s 2
f 1/1/1 2/2/2 3/3/3 4/4/4 
s 4
f 5/5/5 6/6/6 7/7/7 8/8/8 
s 8
f 1/1/1 4/4/4 6/6/6 5/5/5 
s 16
f 4/4/4 3/3/3 7/7/7 6/6/6 
s 32
f 3/3/3 2/2/2 8/8/8 7/7/7 
s 64
f 2/2/2 1/1/1 5/5/5 8/8/8 
# 6 polygons

